<mxfile host="Electron" modified="2024-01-07T15:16:46.261Z" agent="Mozilla/5.0 (Windows NT 10.0; Win64; x64) AppleWebKit/537.36 (KHTML, like Gecko) draw.io/22.0.2 Chrome/114.0.5735.289 Electron/25.8.4 Safari/537.36" etag="nJjaLUSFNzdG_O2zDpLX" version="22.0.2" type="device">
  <diagram id="C5RBs43oDa-KdzZeNtuy" name="Page-1">
    <mxGraphModel dx="1050" dy="629" grid="1" gridSize="10" guides="1" tooltips="1" connect="1" arrows="1" fold="1" page="1" pageScale="1" pageWidth="827" pageHeight="1169" math="0" shadow="0">
      <root>
        <mxCell id="WIyWlLk6GJQsqaUBKTNV-0" />
        <mxCell id="WIyWlLk6GJQsqaUBKTNV-1" parent="WIyWlLk6GJQsqaUBKTNV-0" />
        <mxCell id="rWSw8ZnRSu_el6dS1RgI-4" style="edgeStyle=orthogonalEdgeStyle;rounded=0;orthogonalLoop=1;jettySize=auto;html=1;entryX=0.5;entryY=0;entryDx=0;entryDy=0;" parent="WIyWlLk6GJQsqaUBKTNV-1" source="WIyWlLk6GJQsqaUBKTNV-3" target="rWSw8ZnRSu_el6dS1RgI-2" edge="1">
          <mxGeometry relative="1" as="geometry" />
        </mxCell>
        <mxCell id="WIyWlLk6GJQsqaUBKTNV-3" value="UnpayedOrder" style="rounded=1;whiteSpace=wrap;html=1;fontSize=12;glass=0;strokeWidth=1;shadow=0;" parent="WIyWlLk6GJQsqaUBKTNV-1" vertex="1">
          <mxGeometry x="350" y="140" width="120" height="40" as="geometry" />
        </mxCell>
        <mxCell id="rWSw8ZnRSu_el6dS1RgI-0" value="" style="endArrow=classic;html=1;rounded=0;" parent="WIyWlLk6GJQsqaUBKTNV-1" edge="1">
          <mxGeometry width="50" height="50" relative="1" as="geometry">
            <mxPoint x="409.58000000000004" y="50" as="sourcePoint" />
            <mxPoint x="409.58000000000004" y="140" as="targetPoint" />
          </mxGeometry>
        </mxCell>
        <mxCell id="rWSw8ZnRSu_el6dS1RgI-1" value="From OrderProcessingWorkflow" style="edgeLabel;html=1;align=center;verticalAlign=middle;resizable=0;points=[];" parent="rWSw8ZnRSu_el6dS1RgI-0" vertex="1" connectable="0">
          <mxGeometry x="-0.1326" y="-1" relative="1" as="geometry">
            <mxPoint as="offset" />
          </mxGeometry>
        </mxCell>
        <mxCell id="cNO_FY6lucXYxkaAwM09-0" value="OrderProcessingSuccessEvent" style="edgeLabel;html=1;align=center;verticalAlign=middle;resizable=0;points=[];" parent="rWSw8ZnRSu_el6dS1RgI-0" vertex="1" connectable="0">
          <mxGeometry x="-0.7067" relative="1" as="geometry">
            <mxPoint as="offset" />
          </mxGeometry>
        </mxCell>
        <mxCell id="rWSw8ZnRSu_el6dS1RgI-7" style="edgeStyle=orthogonalEdgeStyle;rounded=0;orthogonalLoop=1;jettySize=auto;html=1;exitX=0;exitY=0.5;exitDx=0;exitDy=0;entryX=0.5;entryY=0;entryDx=0;entryDy=0;" parent="WIyWlLk6GJQsqaUBKTNV-1" source="rWSw8ZnRSu_el6dS1RgI-2" target="rWSw8ZnRSu_el6dS1RgI-5" edge="1">
          <mxGeometry relative="1" as="geometry" />
        </mxCell>
        <mxCell id="rWSw8ZnRSu_el6dS1RgI-9" value="Card" style="edgeLabel;html=1;align=center;verticalAlign=middle;resizable=0;points=[];" parent="rWSw8ZnRSu_el6dS1RgI-7" vertex="1" connectable="0">
          <mxGeometry x="0.3026" relative="1" as="geometry">
            <mxPoint as="offset" />
          </mxGeometry>
        </mxCell>
        <mxCell id="rWSw8ZnRSu_el6dS1RgI-8" style="edgeStyle=orthogonalEdgeStyle;rounded=0;orthogonalLoop=1;jettySize=auto;html=1;exitX=1;exitY=0.5;exitDx=0;exitDy=0;entryX=0.5;entryY=0;entryDx=0;entryDy=0;" parent="WIyWlLk6GJQsqaUBKTNV-1" source="rWSw8ZnRSu_el6dS1RgI-2" target="rWSw8ZnRSu_el6dS1RgI-6" edge="1">
          <mxGeometry relative="1" as="geometry" />
        </mxCell>
        <mxCell id="rWSw8ZnRSu_el6dS1RgI-10" value="Cash" style="edgeLabel;html=1;align=center;verticalAlign=middle;resizable=0;points=[];" parent="rWSw8ZnRSu_el6dS1RgI-8" vertex="1" connectable="0">
          <mxGeometry x="0.3355" relative="1" as="geometry">
            <mxPoint as="offset" />
          </mxGeometry>
        </mxCell>
        <mxCell id="rWSw8ZnRSu_el6dS1RgI-2" value="ChoosePaymentMethod" style="rhombus;whiteSpace=wrap;html=1;" parent="WIyWlLk6GJQsqaUBKTNV-1" vertex="1">
          <mxGeometry x="310" y="230" width="200" height="80" as="geometry" />
        </mxCell>
        <mxCell id="cNO_FY6lucXYxkaAwM09-11" style="edgeStyle=orthogonalEdgeStyle;rounded=0;orthogonalLoop=1;jettySize=auto;html=1;entryX=0.5;entryY=0;entryDx=0;entryDy=0;" parent="WIyWlLk6GJQsqaUBKTNV-1" source="rWSw8ZnRSu_el6dS1RgI-5" target="cNO_FY6lucXYxkaAwM09-10" edge="1">
          <mxGeometry relative="1" as="geometry" />
        </mxCell>
        <mxCell id="rWSw8ZnRSu_el6dS1RgI-5" value="PayByCardOrder" style="rounded=0;whiteSpace=wrap;html=1;" parent="WIyWlLk6GJQsqaUBKTNV-1" vertex="1">
          <mxGeometry x="100" y="290" width="120" height="40" as="geometry" />
        </mxCell>
        <mxCell id="rWSw8ZnRSu_el6dS1RgI-13" style="edgeStyle=orthogonalEdgeStyle;rounded=0;orthogonalLoop=1;jettySize=auto;html=1;exitX=0.5;exitY=1;exitDx=0;exitDy=0;entryX=1;entryY=0.5;entryDx=0;entryDy=0;" parent="WIyWlLk6GJQsqaUBKTNV-1" source="rWSw8ZnRSu_el6dS1RgI-6" target="rWSw8ZnRSu_el6dS1RgI-11" edge="1">
          <mxGeometry relative="1" as="geometry" />
        </mxCell>
        <mxCell id="rWSw8ZnRSu_el6dS1RgI-6" value="PayByCashOrder" style="rounded=0;whiteSpace=wrap;html=1;" parent="WIyWlLk6GJQsqaUBKTNV-1" vertex="1">
          <mxGeometry x="530" y="360" width="120" height="40" as="geometry" />
        </mxCell>
        <mxCell id="rWSw8ZnRSu_el6dS1RgI-11" value="OR" style="ellipse;whiteSpace=wrap;html=1;" parent="WIyWlLk6GJQsqaUBKTNV-1" vertex="1">
          <mxGeometry x="350" y="440" width="120" height="80" as="geometry" />
        </mxCell>
        <mxCell id="rWSw8ZnRSu_el6dS1RgI-23" style="edgeStyle=orthogonalEdgeStyle;rounded=0;orthogonalLoop=1;jettySize=auto;html=1;exitX=0.5;exitY=1;exitDx=0;exitDy=0;" parent="WIyWlLk6GJQsqaUBKTNV-1" edge="1">
          <mxGeometry relative="1" as="geometry">
            <mxPoint x="409.5" y="690" as="targetPoint" />
            <mxPoint x="409.5" y="520" as="sourcePoint" />
          </mxGeometry>
        </mxCell>
        <mxCell id="rWSw8ZnRSu_el6dS1RgI-24" value="To ShippingWorkflow" style="edgeLabel;html=1;align=center;verticalAlign=middle;resizable=0;points=[];" parent="rWSw8ZnRSu_el6dS1RgI-23" vertex="1" connectable="0">
          <mxGeometry x="-0.0676" relative="1" as="geometry">
            <mxPoint as="offset" />
          </mxGeometry>
        </mxCell>
        <mxCell id="cNO_FY6lucXYxkaAwM09-5" value="BillingSuccessEvent" style="edgeLabel;html=1;align=center;verticalAlign=middle;resizable=0;points=[];" parent="rWSw8ZnRSu_el6dS1RgI-23" vertex="1" connectable="0">
          <mxGeometry x="0.4627" y="1" relative="1" as="geometry">
            <mxPoint as="offset" />
          </mxGeometry>
        </mxCell>
        <mxCell id="cNO_FY6lucXYxkaAwM09-7" style="edgeStyle=orthogonalEdgeStyle;rounded=0;orthogonalLoop=1;jettySize=auto;html=1;" parent="WIyWlLk6GJQsqaUBKTNV-1" source="PdPI2fdfAep7W3InkQ5d-1" edge="1">
          <mxGeometry relative="1" as="geometry">
            <mxPoint x="80" y="600" as="targetPoint" />
          </mxGeometry>
        </mxCell>
        <mxCell id="cNO_FY6lucXYxkaAwM09-8" value="BillingFailedEvent" style="edgeLabel;html=1;align=center;verticalAlign=middle;resizable=0;points=[];" parent="cNO_FY6lucXYxkaAwM09-7" vertex="1" connectable="0">
          <mxGeometry x="-0.0131" relative="1" as="geometry">
            <mxPoint as="offset" />
          </mxGeometry>
        </mxCell>
        <mxCell id="PdPI2fdfAep7W3InkQ5d-1" value="PaymentFailedOrder" style="rounded=1;whiteSpace=wrap;html=1;fontSize=12;glass=0;strokeWidth=1;shadow=0;" parent="WIyWlLk6GJQsqaUBKTNV-1" vertex="1">
          <mxGeometry x="20" y="460" width="120" height="40" as="geometry" />
        </mxCell>
        <mxCell id="cNO_FY6lucXYxkaAwM09-9" style="edgeStyle=orthogonalEdgeStyle;rounded=0;orthogonalLoop=1;jettySize=auto;html=1;entryX=0;entryY=0.5;entryDx=0;entryDy=0;" parent="WIyWlLk6GJQsqaUBKTNV-1" source="PdPI2fdfAep7W3InkQ5d-3" target="rWSw8ZnRSu_el6dS1RgI-11" edge="1">
          <mxGeometry relative="1" as="geometry" />
        </mxCell>
        <mxCell id="PdPI2fdfAep7W3InkQ5d-3" value="PayedOrder" style="rounded=1;whiteSpace=wrap;html=1;fontSize=12;glass=0;strokeWidth=1;shadow=0;" parent="WIyWlLk6GJQsqaUBKTNV-1" vertex="1">
          <mxGeometry x="180" y="460" width="120" height="40" as="geometry" />
        </mxCell>
        <mxCell id="cNO_FY6lucXYxkaAwM09-12" style="edgeStyle=orthogonalEdgeStyle;rounded=0;orthogonalLoop=1;jettySize=auto;html=1;exitX=0;exitY=0.5;exitDx=0;exitDy=0;entryX=0.5;entryY=0;entryDx=0;entryDy=0;" parent="WIyWlLk6GJQsqaUBKTNV-1" source="cNO_FY6lucXYxkaAwM09-10" target="PdPI2fdfAep7W3InkQ5d-1" edge="1">
          <mxGeometry relative="1" as="geometry" />
        </mxCell>
        <mxCell id="cNO_FY6lucXYxkaAwM09-14" value="InsufficientFunds" style="edgeLabel;html=1;align=center;verticalAlign=middle;resizable=0;points=[];" parent="cNO_FY6lucXYxkaAwM09-12" vertex="1" connectable="0">
          <mxGeometry x="0.3533" y="1" relative="1" as="geometry">
            <mxPoint as="offset" />
          </mxGeometry>
        </mxCell>
        <mxCell id="cNO_FY6lucXYxkaAwM09-13" style="edgeStyle=orthogonalEdgeStyle;rounded=0;orthogonalLoop=1;jettySize=auto;html=1;exitX=1;exitY=0.5;exitDx=0;exitDy=0;entryX=0.5;entryY=0;entryDx=0;entryDy=0;" parent="WIyWlLk6GJQsqaUBKTNV-1" source="cNO_FY6lucXYxkaAwM09-10" target="PdPI2fdfAep7W3InkQ5d-3" edge="1">
          <mxGeometry relative="1" as="geometry" />
        </mxCell>
        <mxCell id="cNO_FY6lucXYxkaAwM09-15" value="EnoughFunds" style="edgeLabel;html=1;align=center;verticalAlign=middle;resizable=0;points=[];" parent="cNO_FY6lucXYxkaAwM09-13" vertex="1" connectable="0">
          <mxGeometry x="0.37" y="1" relative="1" as="geometry">
            <mxPoint as="offset" />
          </mxGeometry>
        </mxCell>
        <mxCell id="cNO_FY6lucXYxkaAwM09-10" value="PayOrder" style="rhombus;whiteSpace=wrap;html=1;" parent="WIyWlLk6GJQsqaUBKTNV-1" vertex="1">
          <mxGeometry x="120" y="360" width="80" height="60" as="geometry" />
        </mxCell>
      </root>
    </mxGraphModel>
  </diagram>
</mxfile>
